<svg width="1005" height="173" viewBox="0 0 1005 173" fill="none" xmlns="http://www.w3.org/2000/svg">
<path d="M191.608 135.152C185.293 135.152 179.747 133.189 174.968 129.264C170.275 125.339 166.605 119.835 163.96 112.752C161.4 105.584 160.12 97.136 160.12 87.408C160.12 78.0213 161.528 69.8293 164.344 62.832C167.245 55.7493 171.085 50.288 175.864 46.448C180.728 42.5227 186.104 40.56 191.992 40.56C195.491 40.56 198.563 40.9013 201.208 41.584C203.853 42.1813 206.2 42.992 208.248 44.016C209.272 44.6133 209.784 45.5093 209.784 46.704L210.168 66.16C210.168 67.6107 209.656 68.336 208.632 68.336C207.693 68.336 207.096 67.7813 206.84 66.672L205.56 61.936C203.768 55.28 201.677 50.672 199.288 48.112C196.984 45.552 194.211 44.272 190.968 44.272C184.995 44.272 180.003 47.984 175.992 55.408C172.067 62.7467 170.104 73.4133 170.104 87.408C170.104 96.9653 171.085 105.029 173.048 111.6C175.096 118.171 177.699 123.12 180.856 126.448C184.099 129.776 187.512 131.44 191.096 131.44C194.936 131.44 198.008 130.245 200.312 127.856C202.701 125.467 204.707 120.859 206.328 114.032L207.864 107.76C208.12 106.48 208.803 105.925 209.912 106.096C210.851 106.267 211.32 106.992 211.32 108.272L210.808 129.008C210.808 130.203 210.253 131.099 209.144 131.696C207.096 132.72 204.664 133.531 201.848 134.128C199.117 134.811 195.704 135.152 191.608 135.152ZM219.956 134C218.932 134 218.42 133.531 218.42 132.592C218.42 131.739 218.889 131.227 219.828 131.056L221.62 130.8C223.412 130.544 224.564 130.032 225.076 129.264C225.673 128.496 225.972 127.216 225.972 125.424V52.08C225.972 50.544 225.716 49.52 225.204 49.008C224.777 48.4107 223.967 48.0267 222.772 47.856L220.084 47.472C219.145 47.3013 218.676 46.7893 218.676 45.936C218.676 45.0827 219.145 44.5707 220.084 44.4C222.473 43.888 224.479 43.2907 226.1 42.608C227.721 41.9253 229.087 41.2427 230.196 40.56C231.561 39.7067 232.585 39.28 233.268 39.28C234.207 39.28 234.676 39.9627 234.676 41.328V75.248C234.676 76.016 234.932 76.4853 235.444 76.656C235.956 76.7413 236.596 76.4427 237.364 75.76C240.607 72.7733 243.465 70.7253 245.94 69.616C248.415 68.5067 251.017 67.952 253.748 67.952C257.759 67.952 260.916 69.3173 263.22 72.048C265.524 74.6933 266.676 78.6187 266.676 83.824V125.424C266.676 127.216 266.932 128.496 267.444 129.264C268.041 129.947 269.236 130.416 271.028 130.672L273.844 131.056C274.783 131.227 275.252 131.739 275.252 132.592C275.252 133.531 274.74 134 273.716 134H252.212C251.017 134 250.42 133.531 250.42 132.592C250.42 131.739 250.889 131.227 251.828 131.056L253.62 130.8C255.412 130.544 256.564 130.032 257.076 129.264C257.673 128.496 257.972 127.216 257.972 125.424V85.232C257.972 81.0507 257.204 78.1067 255.668 76.4C254.132 74.6933 251.956 73.84 249.14 73.84C246.409 73.84 243.935 74.6507 241.716 76.272C239.583 77.808 237.876 79.8987 236.596 82.544C235.316 85.104 234.676 87.9627 234.676 91.12V125.424C234.676 127.216 234.932 128.496 235.444 129.264C236.041 130.032 237.236 130.501 239.028 130.672L242.484 131.056C243.423 131.227 243.892 131.739 243.892 132.592C243.892 133.531 243.38 134 242.356 134H219.956ZM291.985 135.152C288.401 135.152 285.457 134.043 283.153 131.824C280.849 129.52 279.697 126.491 279.697 122.736C279.697 119.067 280.849 115.611 283.153 112.368C285.457 109.04 288.614 106.053 292.625 103.408C296.636 100.763 301.201 98.6293 306.321 97.008C307.43 96.6667 307.985 95.9413 307.985 94.832V83.184C307.985 79.088 307.345 76.1867 306.065 74.48C304.785 72.688 303.036 71.792 300.817 71.792C298.684 71.792 296.721 72.7733 294.929 74.736C293.222 76.6133 291.985 79.8133 291.217 84.336C290.79 87.0667 289.852 89.072 288.401 90.352C287.036 91.5467 285.628 92.144 284.177 92.144C281.788 92.144 280.593 90.9493 280.593 88.56C280.593 86.0853 281.276 83.6533 282.641 81.264C284.092 78.7893 285.969 76.5707 288.273 74.608C290.577 72.56 293.094 70.9387 295.825 69.744C298.556 68.5493 301.286 67.952 304.017 67.952C312.465 67.952 316.689 72.8587 316.689 82.672V121.84C316.689 125.424 317.585 127.216 319.377 127.216C320.486 127.216 321.51 126.491 322.449 125.04C323.388 123.504 323.857 120.944 323.857 117.36C323.857 115.995 324.412 115.312 325.521 115.312C326.545 115.312 327.057 116.037 327.057 117.488C327.057 123.717 325.948 128.24 323.729 131.056C321.596 133.787 319.164 135.152 316.433 135.152C314.385 135.152 312.764 134.341 311.569 132.72C310.374 131.013 309.564 129.008 309.137 126.704C309.052 125.851 308.668 125.424 307.985 125.424C307.388 125.339 306.79 125.723 306.193 126.576C304.145 129.392 302.054 131.525 299.921 132.976C297.788 134.427 295.142 135.152 291.985 135.152ZM295.441 129.264C297.66 129.264 299.708 128.496 301.585 126.96C303.462 125.339 304.998 123.205 306.193 120.56C307.388 117.915 307.985 114.928 307.985 111.6V102.256C307.985 100.635 307.089 100.165 305.297 100.848C300.092 102.725 296.038 105.328 293.137 108.656C290.321 111.899 288.913 115.824 288.913 120.432C288.913 126.32 291.089 129.264 295.441 129.264ZM344.518 135.152C342.555 135.152 340.465 134.896 338.246 134.384C336.027 133.957 334.235 133.403 332.87 132.72C332.102 132.293 331.718 131.568 331.718 130.544L331.334 116.208C331.334 114.757 331.889 114.032 332.998 114.032C333.937 114.032 334.577 114.715 334.918 116.08C336.369 122.139 338.118 126.277 340.166 128.496C342.299 130.715 344.859 131.824 347.846 131.824C350.321 131.824 352.369 130.885 353.99 129.008C355.611 127.045 356.422 124.357 356.422 120.944C356.422 117.531 355.483 114.501 353.606 111.856C351.729 109.211 348.571 106.309 344.134 103.152C339.697 100.165 336.454 97.1787 334.406 94.192C332.358 91.12 331.334 87.792 331.334 84.208C331.334 79.344 333.041 75.4187 336.454 72.432C339.867 69.4453 344.39 67.952 350.022 67.952C351.729 67.952 353.393 68.1653 355.014 68.592C356.635 68.9333 358.086 69.5307 359.366 70.384C360.134 70.896 360.518 71.5787 360.518 72.432L360.774 86.512C360.774 87.792 360.262 88.432 359.238 88.432C358.641 88.432 358.214 88.2613 357.958 87.92C357.702 87.4933 357.489 86.9813 357.318 86.384C355.611 80.8373 353.905 76.9973 352.198 74.864C350.491 72.6453 348.401 71.536 345.926 71.536C343.707 71.536 341.873 72.304 340.422 73.84C338.971 75.376 338.246 77.296 338.246 79.6C338.246 82.5867 339.142 85.1893 340.934 87.408C342.726 89.6267 345.969 92.3573 350.662 95.6C354.929 98.672 358.129 102 360.262 105.584C362.481 109.083 363.59 112.923 363.59 117.104C363.59 122.565 361.841 126.96 358.342 130.288C354.843 133.531 350.235 135.152 344.518 135.152ZM383.893 135.152C381.93 135.152 379.84 134.896 377.621 134.384C375.402 133.957 373.61 133.403 372.245 132.72C371.477 132.293 371.093 131.568 371.093 130.544L370.709 116.208C370.709 114.757 371.264 114.032 372.373 114.032C373.312 114.032 373.952 114.715 374.293 116.08C375.744 122.139 377.493 126.277 379.541 128.496C381.674 130.715 384.234 131.824 387.221 131.824C389.696 131.824 391.744 130.885 393.365 129.008C394.986 127.045 395.797 124.357 395.797 120.944C395.797 117.531 394.858 114.501 392.981 111.856C391.104 109.211 387.946 106.309 383.509 103.152C379.072 100.165 375.829 97.1787 373.781 94.192C371.733 91.12 370.709 87.792 370.709 84.208C370.709 79.344 372.416 75.4187 375.829 72.432C379.242 69.4453 383.765 67.952 389.397 67.952C391.104 67.952 392.768 68.1653 394.389 68.592C396.01 68.9333 397.461 69.5307 398.741 70.384C399.509 70.896 399.893 71.5787 399.893 72.432L400.149 86.512C400.149 87.792 399.637 88.432 398.613 88.432C398.016 88.432 397.589 88.2613 397.333 87.92C397.077 87.4933 396.864 86.9813 396.693 86.384C394.986 80.8373 393.28 76.9973 391.573 74.864C389.866 72.6453 387.776 71.536 385.301 71.536C383.082 71.536 381.248 72.304 379.797 73.84C378.346 75.376 377.621 77.296 377.621 79.6C377.621 82.5867 378.517 85.1893 380.309 87.408C382.101 89.6267 385.344 92.3573 390.037 95.6C394.304 98.672 397.504 102 399.637 105.584C401.856 109.083 402.965 112.923 402.965 117.104C402.965 122.565 401.216 126.96 397.717 130.288C394.218 133.531 389.61 135.152 383.893 135.152ZM431.076 135.152C426.98 135.152 423.311 133.787 420.068 131.056C416.825 128.325 414.223 124.485 412.26 119.536C410.383 114.501 409.444 108.699 409.444 102.128C409.444 95.3867 410.425 89.456 412.388 84.336C414.351 79.216 417.039 75.2053 420.452 72.304C423.865 69.4027 427.663 67.952 431.844 67.952C436.879 67.952 440.932 70.0427 444.004 74.224C447.161 78.32 448.74 85.0187 448.74 94.32C448.74 97.136 447.673 98.544 445.54 98.544H421.22C419.513 98.544 418.66 99.5253 418.66 101.488C418.66 110.533 419.983 117.317 422.628 121.84C425.273 126.363 428.644 128.624 432.74 128.624C435.983 128.624 438.628 127.472 440.676 125.168C442.724 122.864 444.388 118.981 445.668 113.52C445.924 112.581 446.479 112.112 447.332 112.112C448.356 112.112 448.74 112.965 448.484 114.672C447.119 122.267 444.943 127.6 441.956 130.672C438.969 133.659 435.343 135.152 431.076 135.152ZM420.836 95.344H433.764C437.86 95.344 439.908 93.2107 439.908 88.944C439.908 83.3973 439.225 79.0453 437.86 75.888C436.495 72.7307 434.447 71.152 431.716 71.152C428.388 71.152 425.572 73.072 423.268 76.912C421.049 80.752 419.599 86.2133 418.916 93.296C418.745 94.6613 419.385 95.344 420.836 95.344ZM473.888 135.152C471.755 135.152 469.707 134.683 467.744 133.744C465.781 132.805 464.16 131.312 462.88 129.264C461.6 127.216 460.96 124.485 460.96 121.072V76.528C460.96 74.992 460.704 73.9253 460.192 73.328C459.765 72.7307 458.955 72.3893 457.76 72.304L455.584 72.048C454.133 71.8773 453.408 71.3227 453.408 70.384C453.408 69.2747 454.219 68.72 455.84 68.72H467.744C469.024 68.72 469.664 69.36 469.664 70.64V118.384C469.664 122.309 470.389 125.125 471.84 126.832C473.376 128.453 475.467 129.264 478.112 129.264C480.757 129.264 483.104 128.539 485.152 127.088C487.2 125.552 488.821 123.547 490.016 121.072C491.296 118.512 491.936 115.739 491.936 112.752V76.528C491.936 74.992 491.68 73.9253 491.168 73.328C490.741 72.7307 489.931 72.3893 488.736 72.304L486.56 72.048C485.109 71.8773 484.384 71.3227 484.384 70.384C484.384 69.2747 485.195 68.72 486.816 68.72H498.72C500 68.72 500.64 69.36 500.64 70.64V120.304C500.64 121.84 500.853 122.907 501.28 123.504C501.792 124.016 502.645 124.357 503.84 124.528L506.528 124.912C507.637 124.997 508.192 125.424 508.192 126.192C508.192 126.96 507.509 127.472 506.144 127.728C503.499 128.069 501.365 128.752 499.744 129.776C498.208 130.8 496.843 132.037 495.648 133.488C494.88 134.256 494.24 134.64 493.728 134.64C492.96 134.64 492.576 134.128 492.576 133.104V127.216C492.576 126.533 492.32 126.149 491.808 126.064C491.381 125.893 490.912 126.064 490.4 126.576C487.243 129.733 484.427 131.952 481.952 133.232C479.563 134.512 476.875 135.152 473.888 135.152ZM529.837 76.912C533.336 70.9387 537.56 67.952 542.509 67.952C545.325 67.952 547.416 68.8053 548.781 70.512C550.146 72.1333 550.829 73.968 550.829 76.016C550.829 77.6373 550.402 78.96 549.549 79.984C548.781 81.008 547.544 81.52 545.837 81.52C544.472 81.52 543.448 81.2213 542.765 80.624C542.168 79.9413 541.656 79.1733 541.229 78.32C540.888 77.4667 540.461 76.7413 539.949 76.144C539.437 75.4613 538.584 75.12 537.389 75.12C535.853 75.12 534.402 76.0587 533.037 77.936C531.672 79.728 530.52 82.16 529.581 85.232C528.728 88.304 528.301 91.8027 528.301 95.728V125.424C528.301 127.216 528.557 128.496 529.069 129.264C529.666 130.032 530.861 130.501 532.653 130.672L536.109 131.056C537.048 131.227 537.517 131.696 537.517 132.464C537.517 133.488 536.877 134 535.597 134H513.965C512.685 134 512.045 133.531 512.045 132.592C512.045 131.824 512.6 131.312 513.709 131.056L515.245 130.8C517.037 130.459 518.189 129.947 518.701 129.264C519.298 128.496 519.597 127.216 519.597 125.424V82.416C519.597 80.88 519.341 79.856 518.829 79.344C518.402 78.7467 517.592 78.3627 516.397 78.192L513.709 77.808C512.6 77.7227 512.045 77.2533 512.045 76.4C512.045 75.7173 512.728 75.248 514.093 74.992C516.738 74.5653 518.744 73.8827 520.109 72.944C521.56 72.0053 523.053 70.8533 524.589 69.488C525.357 68.72 525.997 68.336 526.509 68.336C527.277 68.336 527.661 68.848 527.661 69.872V76.784C527.661 77.3813 527.917 77.7653 528.429 77.936C528.941 78.0213 529.41 77.68 529.837 76.912ZM595.793 135.152C592.038 135.152 588.668 133.872 585.681 131.312C582.78 128.667 580.518 125.04 578.897 120.432C577.276 115.739 576.465 110.32 576.465 104.176C576.465 97.008 577.574 90.736 579.793 85.36C582.012 79.8987 585.084 75.632 589.009 72.56C592.934 69.488 597.372 67.952 602.321 67.952C603.516 67.952 604.71 68.08 605.905 68.336C607.1 68.5067 608.252 68.848 609.361 69.36C610.726 70.0427 611.409 69.744 611.409 68.464V52.08C611.409 50.544 611.153 49.4773 610.641 48.88C610.214 48.2827 609.404 47.9413 608.209 47.856L604.881 47.472C603.942 47.3013 603.473 46.7893 603.473 45.936C603.473 45.0827 603.942 44.5707 604.881 44.4C607.612 43.888 609.788 43.2907 611.409 42.608C613.116 41.9253 614.524 41.2427 615.633 40.56C616.998 39.7067 618.022 39.28 618.705 39.28C619.644 39.28 620.113 39.9627 620.113 41.328V121.84C620.113 125.424 621.009 127.216 622.801 127.216C623.91 127.216 624.934 126.491 625.873 125.04C626.812 123.504 627.281 120.944 627.281 117.36C627.281 115.995 627.836 115.312 628.945 115.312C629.969 115.312 630.481 116.037 630.481 117.488C630.481 123.717 629.414 128.24 627.281 131.056C625.148 133.787 622.716 135.152 619.985 135.152C617.51 135.152 615.633 134.341 614.353 132.72C613.073 131.013 612.22 129.008 611.793 126.704C611.708 126.021 611.409 125.68 610.897 125.68C610.385 125.595 609.916 125.893 609.489 126.576C607.1 129.904 604.924 132.165 602.961 133.36C600.998 134.555 598.609 135.152 595.793 135.152ZM598.609 129.264C600.828 129.264 602.876 128.539 604.753 127.088C606.716 125.552 608.294 123.504 609.489 120.944C610.769 118.384 611.409 115.525 611.409 112.368V83.568C611.409 79.728 610.513 76.6987 608.721 74.48C607.014 72.2613 604.753 71.152 601.937 71.152C597.158 71.152 593.276 73.968 590.289 79.6C587.388 85.1467 585.937 92.7413 585.937 102.384C585.937 111.173 587.046 117.872 589.265 122.48C591.569 127.003 594.684 129.264 598.609 129.264ZM655.701 135.152C651.605 135.152 647.936 133.787 644.693 131.056C641.45 128.325 638.848 124.485 636.885 119.536C635.008 114.501 634.069 108.699 634.069 102.128C634.069 95.3867 635.05 89.456 637.013 84.336C638.976 79.216 641.664 75.2053 645.077 72.304C648.49 69.4027 652.288 67.952 656.469 67.952C661.504 67.952 665.557 70.0427 668.629 74.224C671.786 78.32 673.365 85.0187 673.365 94.32C673.365 97.136 672.298 98.544 670.165 98.544H645.845C644.138 98.544 643.285 99.5253 643.285 101.488C643.285 110.533 644.608 117.317 647.253 121.84C649.898 126.363 653.269 128.624 657.365 128.624C660.608 128.624 663.253 127.472 665.301 125.168C667.349 122.864 669.013 118.981 670.293 113.52C670.549 112.581 671.104 112.112 671.957 112.112C672.981 112.112 673.365 112.965 673.109 114.672C671.744 122.267 669.568 127.6 666.581 130.672C663.594 133.659 659.968 135.152 655.701 135.152ZM645.461 95.344H658.389C662.485 95.344 664.533 93.2107 664.533 88.944C664.533 83.3973 663.85 79.0453 662.485 75.888C661.12 72.7307 659.072 71.152 656.341 71.152C653.013 71.152 650.197 73.072 647.893 76.912C645.674 80.752 644.224 86.2133 643.541 93.296C643.37 94.6613 644.01 95.344 645.461 95.344ZM702.727 134C701.447 134 700.807 133.531 700.807 132.592C700.807 131.824 701.362 131.312 702.471 131.056L705.415 130.544C707.207 130.203 708.359 129.733 708.871 129.136C709.468 128.539 709.767 127.344 709.767 125.552V50.288C709.767 48.496 709.468 47.3013 708.871 46.704C708.359 46.1067 707.207 45.6373 705.415 45.296L702.471 44.784C701.362 44.528 700.807 44.016 700.807 43.248C700.807 42.3093 701.447 41.84 702.727 41.84H729.479C734.514 41.84 738.951 42.9493 742.791 45.168C746.631 47.3013 749.618 50.288 751.751 54.128C753.884 57.968 754.951 62.4053 754.951 67.44C754.951 72.304 753.884 76.6133 751.751 80.368C749.618 84.1227 746.674 87.0667 742.919 89.2C739.164 91.248 734.812 92.272 729.863 92.272H720.647C719.452 92.272 718.855 92.8693 718.855 94.064V125.04C718.855 126.832 719.196 128.069 719.879 128.752C720.562 129.349 722.098 129.861 724.487 130.288L729.223 131.056C730.162 131.227 730.631 131.696 730.631 132.464C730.631 133.488 729.991 134 728.711 134H702.727ZM718.855 82.032C718.855 86.7253 721.714 89.072 727.431 89.072C732.978 89.072 737.33 87.1093 740.487 83.184C743.73 79.2587 745.351 73.8827 745.351 67.056C745.351 60.0587 743.73 54.64 740.487 50.8C737.244 46.96 732.636 45.04 726.663 45.04C721.458 45.04 718.855 46.7467 718.855 50.16V82.032ZM780.326 135.152C776.23 135.152 772.561 133.787 769.318 131.056C766.075 128.325 763.473 124.485 761.51 119.536C759.633 114.501 758.694 108.699 758.694 102.128C758.694 95.3867 759.675 89.456 761.638 84.336C763.601 79.216 766.289 75.2053 769.702 72.304C773.115 69.4027 776.913 67.952 781.094 67.952C786.129 67.952 790.182 70.0427 793.254 74.224C796.411 78.32 797.99 85.0187 797.99 94.32C797.99 97.136 796.923 98.544 794.79 98.544H770.47C768.763 98.544 767.91 99.5253 767.91 101.488C767.91 110.533 769.233 117.317 771.878 121.84C774.523 126.363 777.894 128.624 781.99 128.624C785.233 128.624 787.878 127.472 789.926 125.168C791.974 122.864 793.638 118.981 794.918 113.52C795.174 112.581 795.729 112.112 796.582 112.112C797.606 112.112 797.99 112.965 797.734 114.672C796.369 122.267 794.193 127.6 791.206 130.672C788.219 133.659 784.593 135.152 780.326 135.152ZM770.086 95.344H783.014C787.11 95.344 789.158 93.2107 789.158 88.944C789.158 83.3973 788.475 79.0453 787.11 75.888C785.745 72.7307 783.697 71.152 780.966 71.152C777.638 71.152 774.822 73.072 772.518 76.912C770.299 80.752 768.849 86.2133 768.166 93.296C767.995 94.6613 768.635 95.344 770.086 95.344ZM768.678 58.992C767.227 59.5893 766.246 59.4187 765.734 58.48C765.137 57.5413 765.521 56.6027 766.886 55.664L785.318 41.328C786.171 40.6453 786.982 40.1333 787.75 39.792C788.518 39.4507 789.457 39.28 790.566 39.28C792.102 39.28 793.297 39.7493 794.15 40.688C795.003 41.5413 795.43 42.48 795.43 43.504C795.43 44.6133 795.131 45.5947 794.534 46.448C794.022 47.216 792.998 47.9413 791.462 48.624L768.678 58.992ZM804.706 160.24C803.426 160.24 802.786 159.771 802.786 158.832C802.786 157.893 803.341 157.381 804.45 157.296L806.242 157.04C808.034 156.784 809.186 156.272 809.698 155.504C810.295 154.736 810.594 153.456 810.594 151.664V82.416C810.594 80.88 810.338 79.856 809.826 79.344C809.399 78.7467 808.589 78.3627 807.394 78.192L804.706 77.808C803.597 77.7227 803.042 77.2533 803.042 76.4C803.042 75.7173 803.725 75.248 805.09 74.992C807.735 74.5653 809.741 73.8827 811.106 72.944C812.557 72.0053 814.05 70.8533 815.586 69.488C816.354 68.72 816.994 68.336 817.506 68.336C818.274 68.336 818.658 68.848 818.658 69.872V73.84C818.658 74.4373 818.914 74.864 819.426 75.12C819.938 75.2907 820.535 75.0347 821.218 74.352L822.626 72.944C824.333 71.2373 826.082 70 827.874 69.232C829.666 68.3787 831.714 67.952 834.018 67.952C837.943 67.952 841.399 69.2747 844.386 71.92C847.458 74.48 849.847 78.064 851.554 82.672C853.346 87.28 854.242 92.6987 854.242 98.928C854.242 106.011 853.133 112.283 850.914 117.744C848.695 123.205 845.623 127.472 841.698 130.544C837.858 133.616 833.421 135.152 828.386 135.152C825.826 135.152 823.565 134.683 821.602 133.744C820.066 133.061 819.298 133.531 819.298 135.152V151.664C819.298 153.456 819.554 154.651 820.066 155.248C820.663 155.931 821.858 156.4 823.65 156.656L828.386 157.296C829.325 157.467 829.794 157.936 829.794 158.704C829.794 159.728 829.154 160.24 827.874 160.24H804.706ZM828.77 131.952C833.549 131.952 837.389 129.136 840.29 123.504C843.277 117.872 844.77 110.277 844.77 100.72C844.77 91.9307 843.49 85.232 840.93 80.624C838.37 76.016 834.743 73.712 830.05 73.712C827.149 73.712 824.631 74.9067 822.498 77.296C820.365 79.6853 819.298 83.0133 819.298 87.28V119.536C819.298 123.376 820.151 126.405 821.858 128.624C823.65 130.843 825.954 131.952 828.77 131.952ZM872.717 56.56C870.925 56.56 869.389 55.92 868.109 54.64C866.914 53.36 866.317 51.7387 866.317 49.776C866.317 47.8133 866.914 46.2347 868.109 45.04C869.389 43.76 870.925 43.12 872.717 43.12C874.509 43.12 876.002 43.76 877.197 45.04C878.392 46.2347 878.989 47.8133 878.989 49.776C878.989 51.7387 878.392 53.36 877.197 54.64C876.002 55.92 874.509 56.56 872.717 56.56ZM861.965 134C860.685 134 860.045 133.531 860.045 132.592C860.045 131.824 860.6 131.312 861.709 131.056L863.245 130.8C865.378 130.459 866.744 129.947 867.341 129.264C867.938 128.496 868.237 127.216 868.237 125.424V82.416C868.237 80.88 867.981 79.856 867.469 79.344C867.042 78.7467 866.232 78.3627 865.037 78.192L862.349 77.808C861.24 77.7227 860.685 77.2533 860.685 76.4C860.685 75.7173 861.368 75.248 862.733 74.992C865.378 74.5653 867.512 73.8827 869.133 72.944C870.754 72.0053 872.333 70.8533 873.869 69.488C874.637 68.72 875.277 68.336 875.789 68.336C876.557 68.336 876.941 68.848 876.941 69.872V125.424C876.941 127.216 877.197 128.496 877.709 129.264C878.221 130.032 879.202 130.501 880.653 130.672L883.853 131.056C884.792 131.227 885.261 131.696 885.261 132.464C885.261 133.488 884.621 134 883.341 134H861.965ZM905.441 135.152C902.454 135.152 899.98 134.128 898.017 132.08C896.14 129.947 895.201 126.491 895.201 121.712V73.84C895.201 72.816 894.689 72.304 893.665 72.304H889.953C888.588 72.304 887.905 71.792 887.905 70.768C887.905 70.0853 888.289 69.488 889.057 68.976C891.873 67.0133 894.134 64.9227 895.841 62.704C897.548 60.4 899.041 57.2853 900.321 53.36C900.918 51.568 901.644 50.672 902.497 50.672C903.436 50.672 903.905 51.3547 903.905 52.72V66.928C903.905 68.1227 904.502 68.72 905.697 68.72H914.017C915.382 68.72 916.065 69.3173 916.065 70.512C916.065 71.7067 915.382 72.304 914.017 72.304H905.697C904.502 72.304 903.905 72.9013 903.905 74.096V121.84C903.905 123.717 904.204 125.211 904.801 126.32C905.398 127.344 906.508 127.856 908.129 127.856C909.921 127.856 911.372 126.96 912.481 125.168C913.676 123.376 914.444 120.475 914.785 116.464C914.956 115.269 915.51 114.672 916.449 114.672C917.473 114.672 917.985 115.312 917.985 116.592C917.729 123.163 916.364 127.899 913.889 130.8C911.5 133.701 908.684 135.152 905.441 135.152ZM944.326 135.152C940.23 135.152 936.561 133.787 933.318 131.056C930.075 128.325 927.473 124.485 925.51 119.536C923.633 114.501 922.694 108.699 922.694 102.128C922.694 95.3867 923.675 89.456 925.638 84.336C927.601 79.216 930.289 75.2053 933.702 72.304C937.115 69.4027 940.913 67.952 945.094 67.952C950.129 67.952 954.182 70.0427 957.254 74.224C960.411 78.32 961.99 85.0187 961.99 94.32C961.99 97.136 960.923 98.544 958.79 98.544H934.47C932.763 98.544 931.91 99.5253 931.91 101.488C931.91 110.533 933.233 117.317 935.878 121.84C938.523 126.363 941.894 128.624 945.99 128.624C949.233 128.624 951.878 127.472 953.926 125.168C955.974 122.864 957.638 118.981 958.918 113.52C959.174 112.581 959.729 112.112 960.582 112.112C961.606 112.112 961.99 112.965 961.734 114.672C960.369 122.267 958.193 127.6 955.206 130.672C952.219 133.659 948.593 135.152 944.326 135.152ZM934.086 95.344H947.014C951.11 95.344 953.158 93.2107 953.158 88.944C953.158 83.3973 952.475 79.0453 951.11 75.888C949.745 72.7307 947.697 71.152 944.966 71.152C941.638 71.152 938.822 73.072 936.518 76.912C934.299 80.752 932.849 86.2133 932.166 93.296C931.995 94.6613 932.635 95.344 934.086 95.344ZM982.018 135.152C980.055 135.152 977.965 134.896 975.746 134.384C973.527 133.957 971.735 133.403 970.37 132.72C969.602 132.293 969.218 131.568 969.218 130.544L968.834 116.208C968.834 114.757 969.389 114.032 970.498 114.032C971.437 114.032 972.077 114.715 972.418 116.08C973.869 122.139 975.618 126.277 977.666 128.496C979.799 130.715 982.359 131.824 985.346 131.824C987.821 131.824 989.869 130.885 991.49 129.008C993.111 127.045 993.922 124.357 993.922 120.944C993.922 117.531 992.983 114.501 991.106 111.856C989.229 109.211 986.071 106.309 981.634 103.152C977.197 100.165 973.954 97.1787 971.906 94.192C969.858 91.12 968.834 87.792 968.834 84.208C968.834 79.344 970.541 75.4187 973.954 72.432C977.367 69.4453 981.89 67.952 987.522 67.952C989.229 67.952 990.893 68.1653 992.514 68.592C994.135 68.9333 995.586 69.5307 996.866 70.384C997.634 70.896 998.018 71.5787 998.018 72.432L998.274 86.512C998.274 87.792 997.762 88.432 996.738 88.432C996.141 88.432 995.714 88.2613 995.458 87.92C995.202 87.4933 994.989 86.9813 994.818 86.384C993.111 80.8373 991.405 76.9973 989.698 74.864C987.991 72.6453 985.901 71.536 983.426 71.536C981.207 71.536 979.373 72.304 977.922 73.84C976.471 75.376 975.746 77.296 975.746 79.6C975.746 82.5867 976.642 85.1893 978.434 87.408C980.226 89.6267 983.469 92.3573 988.162 95.6C992.429 98.672 995.629 102 997.762 105.584C999.981 109.083 1001.09 112.923 1001.09 117.104C1001.09 122.565 999.341 126.96 995.842 130.288C992.343 133.531 987.735 135.152 982.018 135.152Z" fill="white"/>
<path d="M140.345 41.3521L111.858 70.9373C107.612 75.347 101.549 76.603 96.2558 74.9868C89.1607 72.8204 85.9814 63.6771 78.8686 61.5695V61.5695L72.1821 59.5883C66.898 58.0226 61.3123 57.7849 55.9154 58.8962L52.821 59.5334C48.5407 60.4147 44.523 62.2846 41.0851 64.9953L31.6177 72.4601C27.3493 75.8257 21.3813 75.9475 16.9805 72.7589C9.53636 67.3653 10.474 55.9468 18.6972 51.8535L53.1982 34.6798C61.7436 30.426 71.862 30.8753 80.0011 35.8697L82.234 37.2399C92.4938 43.5356 105.773 41.4849 113.68 32.3838L121.236 23.6866C125.894 18.3261 133.964 17.7043 139.379 22.2888C145.135 27.1615 145.578 35.9168 140.345 41.3521Z" fill="white"/>
<path d="M56.4046 93.6847L19.6786 130.606C15.1769 135.131 7.87809 135.131 3.37633 130.606C-1.13192 126.074 -1.12448 118.723 3.39293 114.2L40.8171 76.7301C45.4721 72.0695 51.6308 69.2349 58.1819 68.7378C66.1864 68.1305 74.0562 71.0637 79.7323 76.77L89.1723 86.2601C92.5263 89.6319 94.4105 94.205 94.4105 98.9734C94.4105 103.742 92.5263 108.315 89.1723 111.687L75.3708 125.562C72.4384 128.51 68.4612 130.166 64.3142 130.166H58.7989C51.7024 130.166 46.4063 123.597 47.875 116.618C48.9669 111.428 53.5229 107.716 58.7989 107.716H62.2579C64.4219 107.716 66.4973 106.852 68.0275 105.313C71.214 102.11 71.2001 96.9022 68.0136 93.6988C64.8117 90.4799 59.6064 90.4658 56.4046 93.6847Z" fill="white"/>
<path d="M110.944 16.4056C110.944 25.4662 103.638 32.8112 94.6252 32.8112C85.6125 32.8112 78.3063 25.4662 78.3063 16.4056C78.3063 7.34505 85.6125 0 94.6252 0C103.638 0 110.944 7.34505 110.944 16.4056Z" fill="white"/>
</svg>
